<svg viewBox="0 0 40 40" fill="none" xmlns="http://www.w3.org/2000/svg"><path d="M23.333 3.3335V10.0002C23.333 10.8842 23.6842 11.7321 24.3093 12.3572C24.9344 12.9823 25.7823 13.3335 26.6663 13.3335H33.333" stroke="currentColor" stroke-width="2.5" stroke-linecap="round" stroke-linejoin="round"/><path d="M7.11366 35.0002C7.40551 35.5057 7.82497 35.9257 8.3301 36.2181C8.83522 36.5106 9.4083 36.6654 9.99199 36.6668H30.0003C30.8844 36.6668 31.7322 36.3156 32.3573 35.6905C32.9825 35.0654 33.3337 34.2176 33.3337 33.3335V11.6668L25.0003 3.3335H10.0003C9.11627 3.3335 8.26842 3.68469 7.6433 4.30981C7.01818 4.93493 6.66699 5.78277 6.66699 6.66683V11.6668" stroke="currentColor" stroke-width="2.5" stroke-linecap="round" stroke-linejoin="round"/><path d="M15 30L12.5 27.5" stroke="currentColor" stroke-width="2.5" stroke-linecap="round" stroke-linejoin="round"/><path d="M8.33301 28.3335C11.0944 28.3335 13.333 26.0949 13.333 23.3335C13.333 20.5721 11.0944 18.3335 8.33301 18.3335C5.57158 18.3335 3.33301 20.5721 3.33301 23.3335C3.33301 26.0949 5.57158 28.3335 8.33301 28.3335Z" stroke="currentColor" stroke-width="2.5" stroke-linecap="round" stroke-linejoin="round"/></svg>
