<?xml version="1.0" encoding="UTF-8"?> <svg xmlns="http://www.w3.org/2000/svg" id="Livello_2" data-name="Livello 2" viewBox="0 0 891.33 111.79"><defs><style> .cls-1 { fill: #6f6f6f; } .cls-2 { fill: #fff; } </style></defs><g id="set_right" data-name="set right"><path class="cls-2" d="M37.1,106.4c-8.59,0-15.87-1.45-21.84-4.34-5.97-2.99-11.06-6.81-15.26-11.48l14-14.14c6.63,7.47,14.79,11.2,24.5,11.2,5.23,0,9.1-1.07,11.62-3.22,2.52-2.15,3.78-4.99,3.78-8.54,0-2.71-.75-4.95-2.24-6.72-1.49-1.87-4.53-3.13-9.1-3.78l-9.66-1.26c-10.36-1.31-17.97-4.43-22.82-9.38-4.76-4.95-7.14-11.53-7.14-19.74,0-4.39.84-8.4,2.52-12.04,1.68-3.64,4.06-6.77,7.14-9.38,3.17-2.61,7-4.62,11.48-6.02,4.57-1.49,9.75-2.24,15.54-2.24,7.37,0,13.86,1.17,19.46,3.5,5.6,2.33,10.41,5.74,14.42,10.22l-14.14,14.28c-2.33-2.71-5.18-4.9-8.54-6.58-3.27-1.77-7.42-2.66-12.46-2.66-4.76,0-8.31.84-10.64,2.52-2.33,1.68-3.5,4.01-3.5,7,0,3.36.89,5.79,2.66,7.28,1.87,1.49,4.85,2.57,8.96,3.22l9.66,1.54c10.08,1.59,17.55,4.71,22.4,9.38,4.85,4.57,7.28,11.11,7.28,19.6,0,4.67-.84,8.96-2.52,12.88-1.68,3.92-4.15,7.28-7.42,10.08-3.17,2.8-7.14,4.99-11.9,6.58-4.76,1.49-10.17,2.24-16.24,2.24Z"></path><polygon class="cls-2" points="92.82 104.72 92.82 7 159.32 7 159.32 25.9 114.1 25.9 114.1 45.92 152.88 45.92 152.88 64.68 114.1 64.68 114.1 85.82 159.32 85.82 159.32 104.72 92.82 104.72"></polygon><polygon class="cls-2" points="218.6 25.9 218.6 104.72 197.32 104.72 197.32 25.9 170.86 25.9 170.86 7 245.06 7 245.06 25.9 218.6 25.9"></polygon><path class="cls-2" d="M488.71,104.72h-21.28V7h46.34c4.48,0,8.54.75,12.18,2.24,3.64,1.49,6.72,3.64,9.24,6.44,2.61,2.71,4.62,5.97,6.02,9.8,1.4,3.83,2.1,8.07,2.1,12.74,0,6.63-1.49,12.41-4.48,17.36-2.89,4.95-7.33,8.54-13.3,10.78l19.18,38.36h-23.66l-17.08-35.84h-15.26v35.84ZM511.11,50.96c3.17,0,5.65-.79,7.42-2.38,1.87-1.68,2.8-4.11,2.8-7.28v-6.16c0-3.17-.93-5.55-2.8-7.14-1.77-1.68-4.25-2.52-7.42-2.52h-22.4v25.48h22.4Z"></path><polygon class="cls-2" points="567.99 104.72 567.99 87.78 580.59 87.78 580.59 23.94 567.99 23.94 567.99 7 614.47 7 614.47 23.94 601.87 23.94 601.87 87.78 614.47 87.78 614.47 104.72 567.99 104.72"></polygon><path class="cls-2" d="M694.22,89.18h-.7c-.75,4.95-3.27,9.05-7.56,12.32-4.29,3.27-10.13,4.9-17.5,4.9-5.6,0-10.83-1.07-15.68-3.22-4.85-2.15-9.1-5.32-12.74-9.52-3.64-4.2-6.49-9.43-8.54-15.68-2.05-6.25-3.08-13.49-3.08-21.7s1.07-15.49,3.22-21.84c2.15-6.35,5.13-11.67,8.96-15.96,3.92-4.29,8.59-7.56,14-9.8,5.41-2.24,11.43-3.36,18.06-3.36,8.77,0,16.33,1.91,22.68,5.74,6.35,3.73,11.34,9.38,14.98,16.94l-17.36,9.94c-1.49-3.83-3.83-7.05-7-9.66-3.17-2.71-7.61-4.06-13.3-4.06-6.63,0-11.9,1.91-15.82,5.74-3.92,3.83-5.88,9.85-5.88,18.06v15.68c0,8.12,1.96,14.14,5.88,18.06,3.92,3.83,9.19,5.74,15.82,5.74,2.61,0,5.09-.28,7.42-.84,2.33-.65,4.39-1.59,6.16-2.8,1.77-1.31,3.13-2.85,4.06-4.62,1.03-1.77,1.54-3.87,1.54-6.3v-4.9h-18.2v-17.78h38.5v54.46h-17.92v-15.54Z"></path><polygon class="cls-2" points="781.34 64.68 744.1 64.68 744.1 104.72 722.82 104.72 722.82 7 744.1 7 744.1 45.92 781.34 45.92 781.34 7 802.62 7 802.62 104.72 781.34 104.72 781.34 64.68"></polygon><polygon class="cls-2" points="864.87 25.9 864.87 104.72 843.59 104.72 843.59 25.9 817.13 25.9 817.13 7 891.33 7 891.33 25.9 864.87 25.9"></polygon></g><g id="it"><g><rect class="cls-2" x="385.65" y="18.65" width="7" height="7"></rect><rect class="cls-2" x="371.37" y="18.65" width="7" height="7"></rect><polygon class="cls-2" points="382.01 111.79 399.65 111.79 399.65 25.97 382.01 25.97 364.37 25.97 364.37 111.79 382.01 111.79"></polygon><polygon class="cls-2" points="382.35 32.65 426.11 32.65 426.11 0 382.35 0 338.59 0 338.59 32.65 382.35 32.65"></polygon><polygon class="cls-1" points="392.65 25.65 392.65 104.47 371.37 104.47 371.37 25.65 344.91 25.65 344.91 6.75 419.11 6.75 419.11 25.65 392.65 25.65"></polygon></g><g><rect class="cls-2" x="301.21" y="87.78" width="7" height="7"></rect><rect class="cls-2" x="301.21" y="16.94" width="7" height="7"></rect><rect class="cls-2" x="315.49" y="16.94" width="7" height="7"></rect><rect class="cls-2" x="315.49" y="87.78" width="7" height="7"></rect><polygon class="cls-2" points="311.85 30.94 342.09 30.94 342.09 0 311.85 0 281.61 0 281.61 30.94 311.85 30.94"></polygon><polygon class="cls-2" points="311.85 23.94 294.21 23.94 294.21 87.78 311.85 87.78 329.49 87.78 329.49 23.94 311.85 23.94"></polygon><polygon class="cls-2" points="311.85 80.78 281.61 80.78 281.61 111.72 311.85 111.72 342.09 111.72 342.09 80.78 311.85 80.78"></polygon><polygon class="cls-1" points="288.61 104.72 288.61 87.78 301.21 87.78 301.21 23.94 288.61 23.94 288.61 7 335.09 7 335.09 23.94 322.49 23.94 322.49 87.78 335.09 87.78 335.09 104.72 288.61 104.72"></polygon></g></g></svg> 